# xmcd
#
# Track frame offsets: 
#        150
#        13327
#        25797
#        46272
#        61894
#        83274
#        107626
#        131410
#        152806
#        166571
#        183298
#        200674
#
# Disc length: 3024 seconds
#
# Revision: 0
# Processed by: cddbd v1.5.2PL0 Copyright (c) Steve Scherf et al.
# Submitted via: ExactAudioCopy v1.0b4
#
DISCID=890bce0c
DTITLE=Mighty Sam Mcclain and Knut Reiersrud - Tears of the World
DYEAR=2015
DGENRE=Contemporary Blues, Jazz
TTITLE0=Tears of the World
TTITLE1=Please Mr. Foreman
TTITLE2=Jewels
TTITLE3=Living in the Key of G
TTITLE4=Que Sera Sera
TTITLE5=Friends
TTITLE6=Too Proud
TTITLE7=Apples Don't Fall Far from the Tree
TTITLE8=I Wish I Had a Girl Like You
TTITLE9=Somebody Help Me
TTITLE10=Things Aint What They Used to Be
TTITLE11=Promised Land
EXTD=
EXTT0=
EXTT1=
EXTT2=
EXTT3=
EXTT4=
EXTT5=
EXTT6=
EXTT7=
EXTT8=
EXTT9=
EXTT10=
EXTT11=
PLAYORDER=
